<?xml version="1.0" encoding="UTF-8"?>
<svg xmlns="http://www.w3.org/2000/svg" viewBox="0 0 64 64" role="img">
  <title>Lavanda</title>
  <rect width="64" height="64" rx="16" fill="#6d28d9"/>
  <path d="M34.5 18c0 1.65-1.55 3-2.5 3s-2.5-1.35-2.5-3 1.1-3 2.5-3 2.5 1.35 2.5 3z" fill="#d8b4fe"/>
  <path d="M26.2 22c0 1.65-1.55 3-2.5 3s-2.5-1.35-2.5-3 1.1-3 2.5-3 2.5 1.35 2.5 3z" fill="#c084fc"/>
  <path d="M41.3 22c0 1.65-1.55 3-2.5 3s-2.5-1.35-2.5-3 1.1-3 2.5-3 2.5 1.35 2.5 3z" fill="#d8b4fe"/>
  <path d="M29.8 28c0 1.65-1.55 3-2.5 3s-2.5-1.35-2.5-3 1.1-3 2.5-3 2.5 1.35 2.5 3z" fill="#c084fc"/>
  <path d="M36.8 28c0 1.65-1.55 3-2.5 3s-2.5-1.35-2.5-3 1.1-3 2.5-3 2.5 1.35 2.5 3z" fill="#d8b4fe"/>
  <path d="M32 34c0 1.65-1.55 3-2.5 3s-2.5-1.35-2.5-3 1.1-3 2.5-3 2.5 1.35 2.5 3z" fill="#c084fc"/>
  <path d="M38.8 34c0 1.65-1.55 3-2.5 3s-2.5-1.35-2.5-3 1.1-3 2.5-3 2.5 1.35 2.5 3z" fill="#d8b4fe"/>
  <path d="M32 13c-1.1 0-2 .9-2 2v14.2c0 .7.56 1.28 1.25 1.28.42 0 .8-.22 1.04-.58l.01-.02.01.02c.24.36.62.58 1.04.58.69 0 1.25-.58 1.25-1.28V15c0-1.1-.9-2-2-2z" fill="#65a30d"/>
  <path d="M25.5 40.5c0 1.5-1.2 2.7-2.7 2.7s-2.7-1.2-2.7-2.7 1.2-2.7 2.7-2.7 2.7 1.2 2.7 2.7z" fill="#7c3aed" opacity=".95"/>
  <path d="M42.2 40.5c0 1.5-1.2 2.7-2.7 2.7s-2.7-1.2-2.7-2.7 1.2-2.7 2.7-2.7 2.7 1.2 2.7 2.7z" fill="#7c3aed" opacity=".95"/>
</svg>
